<svg width="24" height="24" viewBox="0 0 24 24" fill="none" xmlns="http://www.w3.org/2000/svg">
<path fill-rule="evenodd" clip-rule="evenodd" d="M19.5 20.125H4.5C4.155 20.125 3.875 19.845 3.875 19.5V10.125H6.375C6.04938 10.5938 5.93938 11.4681 5.93938 12.0231C5.93938 15.37 8.66874 18.0931 12.0231 18.0931C15.3781 18.0931 18.1075 15.37 18.1075 12.0231C18.1075 11.4681 18.0287 10.6069 17.625 10.125H20.125V19.5C20.125 19.845 19.845 20.125 19.5 20.125ZM12.0231 8.18625C14.1475 8.18625 15.8694 9.90438 15.8694 12.0231C15.8694 14.1425 14.1475 15.8606 12.0231 15.8606C9.89937 15.8606 8.1775 14.1425 8.1775 12.0231C8.1775 9.90438 9.89937 8.18625 12.0231 8.18625ZM17 4.5H18.875C19.22 4.5 19.5 4.78 19.5 5.125V7C19.5 7.345 19.22 7.625 18.875 7.625H17C16.655 7.625 16.375 7.345 16.375 7V5.125C16.375 4.78 16.655 4.5 17 4.5ZM19.6225 2H4.37749C3.06437 2 2 3.06188 2 4.37188V19.6281C2 20.9381 3.06437 22 4.37749 22H19.6225C20.9356 22 22 20.9381 22 19.6281V4.37188C22 3.06188 20.9356 2 19.6225 2Z" fill="#757575"/>
</svg>
