<svg width="24" height="24" viewBox="0 0 24 24" fill="none" xmlns="http://www.w3.org/2000/svg">
<path fill-rule="evenodd" clip-rule="evenodd" d="M12 2C6.47688 2 2 6.47687 2 12C2 16.2362 4.63562 19.855 8.35562 21.3119C8.26812 20.5206 8.18937 19.3069 8.39062 18.4431C8.57187 17.6631 9.56312 13.4725 9.56312 13.4725C9.56312 13.4725 9.26375 12.8737 9.26375 11.9881C9.26375 10.5975 10.07 9.55938 11.0731 9.55938C11.9262 9.55938 12.3387 10.2 12.3387 10.9681C12.3387 11.8263 11.7925 13.1088 11.5106 14.2975C11.275 15.2931 12.0094 16.105 12.9912 16.105C14.7687 16.105 16.135 14.2306 16.135 11.5256C16.135 9.13125 14.4144 7.45687 11.9575 7.45687C9.11249 7.45687 7.4425 9.59125 7.4425 11.7969C7.4425 12.6562 7.77312 13.5781 8.18625 14.0788C8.26812 14.1781 8.27999 14.2644 8.25562 14.3656C8.17999 14.6819 8.01124 15.3606 7.97812 15.5C7.93437 15.6825 7.83312 15.7219 7.64375 15.6338C6.39437 15.0519 5.61375 13.2262 5.61375 11.7594C5.61375 8.605 7.90562 5.70813 12.2212 5.70813C15.69 5.70813 18.3862 8.18 18.3862 11.4837C18.3862 14.93 16.2131 17.7038 13.1969 17.7038C12.1837 17.7038 11.2312 17.1769 10.905 16.555C10.905 16.555 10.4037 18.4644 10.2819 18.9325C10.0562 19.8006 9.44687 20.8894 9.03875 21.5538C9.975 21.8438 10.9694 22 12 22C17.5231 22 22 17.5225 22 12C22 6.47687 17.5231 2 12 2Z" fill="#757575"/>
</svg>
