<svg width="36" height="36" fill="none" xmlns="http://www.w3.org/2000/svg"><path fill-rule="evenodd" clip-rule="evenodd" d="M21.79 12.316h-1.895V5.4a.665.665 0 00-.664-.664h-.757V2.842h.757a2.561 2.561 0 012.559 2.559v6.915zm0 18.283a2.561 2.561 0 01-2.56 2.559h-.756v-1.895h.757a.665.665 0 00.664-.664v-9.115c0-.678-.337-1.307-.9-1.682l-3.04-2.027a3.91 3.91 0 01-1.745-3.258V5.401a2.562 2.562 0 012.56-2.559h.756v1.895h-.756a.665.665 0 00-.665.664v9.116c0 .677.337 1.306.9 1.681l3.04 2.028a3.908 3.908 0 011.745 3.258v9.115zm-4.264 2.559h-.756a2.562 2.562 0 01-2.56-2.559v-6.915h1.895V30.6c0 .367.298.664.665.664h.756v1.895zM18 0C8.059 0 0 8.06 0 18c0 9.941 8.059 18 18 18s18-8.059 18-18c0-9.94-8.059-18-18-18z" fill="#00FF95"/></svg>