<svg width="148" height="48" fill="none" xmlns="http://www.w3.org/2000/svg"><path fill-rule="evenodd" clip-rule="evenodd" d="M97.172 0c-13.21 0-23.92 10.746-23.92 24s10.71 24 23.92 24c13.209 0 23.919-10.746 23.919-24S110.381 0 97.172 0z" fill="#00FF95"/><path fill-rule="evenodd" clip-rule="evenodd" d="M53.744 21.146l4.797 3.21a6.195 6.195 0 012.752 5.159v14.434A4.049 4.049 0 0157.255 48h-1.194v-3h1.194a1.05 1.05 0 001.048-1.05V29.516a3.2 3.2 0 00-1.42-2.663l-4.797-3.21a6.19 6.19 0 01-2.752-5.158V4.051C49.334 1.818 51.145 0 53.37 0h1.195v3H53.37a1.05 1.05 0 00-1.048 1.051v14.433c0 1.072.531 2.068 1.42 2.662zM0 3h11.96V0H0v3zm37.374 0h-4.485V0h4.485v3zm-29.9 45h-2.99V4.5h2.99V48zm8.97-25.5h2.243v3h-2.243V48h-2.99V0h2.99v22.5zM22.424 0v22.5h-2.242v3h2.242V48h2.99V0h-2.99zm14.95 48h-4.485v-3h4.485v3zm-5.98-25.5V0h-2.99v48h2.99V25.5h5.98v-3h-5.98zM142.02 0v22.5H148v3h-5.98V48h-2.99V0h2.99zm1.495 48H148v-3h-4.485v3zM148 3h-4.485V0H148v3zM67.273 48h2.99V4.5h-2.99V48zm7.475-45h-11.96V0h11.96v3zM54.566 45H53.37a1.05 1.05 0 01-1.048-1.052V33h-2.99v10.948A4.049 4.049 0 0053.371 48h1.195v-3zm2.689-45H56.06v3h1.195a1.05 1.05 0 011.048 1.051V15h2.99V4.05A4.049 4.049 0 0057.255 0zm71.99 27h2.757c.047 0 .093-.003.139-.007l.091-.005L136.04 48h-2.99l-3.805-21zm-5.164 21h2.99V0h-2.99v48zm4.484-48h3.437a4.05 4.05 0 014.038 4.051v17.397a4.05 4.05 0 01-4.038 4.052h-3.437v-3h3.437a1.05 1.05 0 001.048-1.052V4.051A1.05 1.05 0 00132.002 3h-3.437V0z" fill="#fff"/></svg>