<svg width="36" height="36" viewBox="0 0 36 36" fill="none" xmlns="http://www.w3.org/2000/svg">
<path fill-rule="evenodd" clip-rule="evenodd" d="M21.7896 12.3159H19.8951V5.40056C19.8951 5.03494 19.597 4.73681 19.2308 4.73681H18.4737V2.84231H19.2308C20.6415 2.84231 21.7896 3.98981 21.7896 5.40056V12.3159ZM21.7896 30.5994C21.7896 32.0102 20.6415 33.1577 19.2308 33.1577H18.4736V31.2632H19.2308C19.5969 31.2632 19.8951 30.9656 19.8951 30.5994V21.4836C19.8951 20.8063 19.5581 20.1774 18.9945 19.8017L15.9542 17.775C14.8629 17.0471 14.2104 15.8293 14.2104 14.517V5.40056C14.2104 3.98981 15.3585 2.84231 16.7698 2.84231H17.5264V4.73681H16.7698C16.4031 4.73681 16.1055 5.03494 16.1055 5.40056V14.517C16.1055 15.1943 16.4424 15.8226 17.0055 16.1983L20.0458 18.2256C21.1371 18.9529 21.7896 20.1712 21.7896 21.4836V30.5994ZM17.5264 33.1577H16.7698C15.3585 33.1577 14.2104 32.0102 14.2104 30.5994V23.6841H16.1055V30.5994C16.1055 30.9656 16.4031 31.2632 16.7698 31.2632H17.5264V33.1577ZM18 0C8.05894 0 0 8.0595 0 18C0 27.9411 8.05894 36 18 36C27.9411 36 36 27.9411 36 18C36 8.0595 27.9411 0 18 0Z" fill="#00FF95"/>
</svg>
