<svg width="48" height="48" viewBox="0 0 48 48" fill="none" xmlns="http://www.w3.org/2000/svg">
<path fill-rule="evenodd" clip-rule="evenodd" d="M29.0527 16.4212H26.5267V7.20075C26.5267 6.71325 26.1292 6.31575 25.641 6.31575H24.6315V3.78975H25.641C27.522 3.78975 29.0527 5.31975 29.0527 7.20075V16.4212ZM29.0528 40.7993C29.0528 42.6803 27.522 44.2103 25.641 44.2103H24.6315V41.6842H25.641C26.1293 41.6842 26.5268 41.2875 26.5268 40.7993V28.6447C26.5268 27.7417 26.0775 26.9032 25.326 26.4023L21.2723 23.7C19.8173 22.7295 18.9473 21.1057 18.9473 19.356V7.20075C18.9473 5.31975 20.478 3.78975 22.3598 3.78975H23.3685V6.31575H22.3598C21.8708 6.31575 21.474 6.71325 21.474 7.20075V19.356C21.474 20.259 21.9233 21.0968 22.674 21.5977L26.7278 24.3008C28.1828 25.2705 29.0528 26.895 29.0528 28.6447V40.7993ZM23.3685 44.2103H22.3598C20.478 44.2103 18.9473 42.6803 18.9473 40.7993V31.5788H21.474V40.7993C21.474 41.2875 21.8708 41.6842 22.3598 41.6842H23.3685V44.2103ZM24 0C10.7452 0 0 10.746 0 24C0 37.2547 10.7452 48 24 48C37.2547 48 48 37.2547 48 24C48 10.746 37.2547 0 24 0Z" fill="#D6D6D6"/>
</svg>
