<svg width="28" height="28" viewBox="0 0 28 28" fill="none" xmlns="http://www.w3.org/2000/svg">
<path d="M3 9.62222C3 9.59167 3 9.59167 3 9.56111C3 6.50556 5.475 4 8.53056 4C8.56111 4 8.56111 4 8.59167 4C8.62222 4 8.62222 4 8.65278 4C11.25 4 13.45 5.83333 14.0306 8.27778C14.6111 5.83333 16.7806 4 19.3778 4C19.4083 4 19.4083 4 19.4389 4C19.4694 4 19.4694 4 19.5 4C22.5556 4 25 6.50556 25 9.56111C25 9.59167 25 9.59167 25 9.62222C25 11.3333 24.3278 13.1056 22.9222 14.5417C19.8361 17.6583 14.8861 22.6694 14 23.5556C13.1444 22.6694 8.16389 17.6583 5.07778 14.5417C3.67222 13.1056 3 11.3639 3 9.62222Z" stroke="white" stroke-width="2" stroke-linejoin="round"/>
</svg>
