<svg width="48" height="48" fill="none" xmlns="http://www.w3.org/2000/svg"><path fill-rule="evenodd" clip-rule="evenodd" d="M29.053 16.421h-2.526v-9.22a.887.887 0 00-.886-.885h-1.01V3.79h1.01a3.415 3.415 0 013.412 3.41v9.221zm0 24.378a3.415 3.415 0 01-3.412 3.411h-1.01v-2.526h1.01a.886.886 0 00.886-.885V28.645a2.69 2.69 0 00-1.201-2.243L21.272 23.7a5.212 5.212 0 01-2.325-4.344V7.201A3.415 3.415 0 0122.36 3.79h1.009v2.526h-1.01a.886.886 0 00-.885.885v12.155c0 .903.45 1.74 1.2 2.242l4.054 2.703a5.211 5.211 0 012.325 4.344v12.154zm-5.684 3.411h-1.01a3.415 3.415 0 01-3.412-3.41v-9.221h2.527v9.22c0 .489.397.885.886.885h1.009v2.526zM24 0C10.745 0 0 10.746 0 24c0 13.255 10.745 24 24 24s24-10.745 24-24C48 10.746 37.255 0 24 0z" fill="#D6D6D6"/></svg>