<svg width="24" height="24" fill="none" xmlns="http://www.w3.org/2000/svg"><path fill-rule="evenodd" clip-rule="evenodd" d="M19.5 20.125h-15a.625.625 0 01-.625-.625v-9.375h2.5c-.326.469-.436 1.343-.436 1.898 0 3.347 2.73 6.07 6.084 6.07 3.355 0 6.085-2.723 6.085-6.07 0-.555-.08-1.416-.483-1.898h2.5V19.5c0 .345-.28.625-.625.625zM12.023 8.186a3.842 3.842 0 013.846 3.837 3.842 3.842 0 01-3.846 3.838 3.842 3.842 0 01-3.845-3.838 3.842 3.842 0 013.845-3.837zM17 4.5h1.875c.345 0 .625.28.625.625V7c0 .345-.28.625-.625.625H17A.625.625 0 0116.375 7V5.125c0-.345.28-.625.625-.625zM19.622 2H4.377A2.375 2.375 0 002 4.372v15.256A2.375 2.375 0 004.377 22h15.245A2.375 2.375 0 0022 19.628V4.372A2.375 2.375 0 0019.622 2z" fill="#757575"/></svg>