<svg width="148" height="48" viewBox="0 0 148 48" fill="none" xmlns="http://www.w3.org/2000/svg">
<path fill-rule="evenodd" clip-rule="evenodd" d="M97.1721 0C83.9627 0 73.2529 10.746 73.2529 24C73.2529 37.254 83.9627 48 97.1721 48C110.381 48 121.091 37.254 121.091 24C121.091 10.746 110.381 0 97.1721 0Z" fill="#00FF95"/>
<path fill-rule="evenodd" clip-rule="evenodd" d="M53.7436 21.1465L58.5409 24.3565C60.2631 25.5085 61.2931 27.4375 61.2931 29.515V43.9495C61.2931 46.183 59.4813 47.9995 57.2553 47.9995H56.0608V44.9995H57.2553C57.8323 44.9995 58.3032 44.5285 58.3032 43.9495V29.515C58.3032 28.4425 57.771 27.448 56.883 26.8525L52.0857 23.6425C50.3621 22.4905 49.3335 20.563 49.3335 18.484V4.05101C49.3335 1.81751 51.1454 -0.000488281 53.3714 -0.000488281H54.5659V2.99951H53.3714C52.7928 2.99951 52.3234 3.47201 52.3234 4.05101V18.484C52.3234 19.5565 52.8541 20.5525 53.7436 21.1465ZM0 2.99985H11.9596V-0.000154767H0V2.99985ZM37.3737 2.99985H32.8889V-0.000154767H37.3737V2.99985ZM7.47475 47.9998H4.48485V4.49985H7.47475V47.9998ZM16.4444 22.4998H18.6869V25.4998H16.4444V47.9998H13.4545V25.4998V22.4998V-0.000154767H16.4444V22.4998ZM22.4242 -0.000154767V22.4998H20.1818V25.4998H22.4242V47.9998H25.4141V-0.000154767H22.4242ZM37.3737 47.9998H32.8889V44.9998H37.3737V47.9998ZM31.3939 22.4998V-0.000154767H28.404V47.9998H31.3939V25.4998H37.3737V22.4998H31.3939ZM142.02 -0.000154767V22.4998H148V25.4998H142.02V44.2498V44.9998V47.9998H139.03V-0.000154767H142.02ZM143.515 47.9998H148V44.9998H143.515V47.9998ZM148 2.99985H143.515V-0.000154767H148V2.99985ZM67.2727 47.9998H70.2626V4.49985H67.2727V47.9998ZM74.7475 2.99985H62.7879V-0.000154767H74.7475V2.99985ZM54.5657 44.9998H53.3712C52.7926 44.9998 52.3232 44.5288 52.3232 43.9483V32.9998H49.3333V43.9483C49.3333 46.1833 51.1452 47.9998 53.3712 47.9998H54.5657V44.9998ZM57.2549 -0.000154767H56.0604V2.99985H57.2549C57.8334 2.99985 58.3028 3.47085 58.3028 4.05135V14.9998H61.2927V4.05135C61.2927 1.81635 59.4809 -0.000154767 57.2549 -0.000154767ZM129.245 26.9998H132.002C132.049 26.9998 132.095 26.9965 132.141 26.9933C132.172 26.9911 132.202 26.989 132.232 26.9878L136.04 47.9998H133.05L129.245 26.9998ZM124.081 47.9998H127.071V-0.000154767H124.081V47.9998ZM128.565 -0.000154767H132.002C134.228 -0.000154767 136.04 1.81635 136.04 4.05135V11.9998V13.4998V21.4483C136.04 23.6833 134.228 25.4998 132.002 25.4998H128.565V22.4998H132.002C132.581 22.4998 133.05 22.0288 133.05 21.4483V13.4998V11.9998V4.05135C133.05 3.47085 132.581 2.99985 132.002 2.99985H128.565V-0.000154767Z" fill="white"/>
</svg>
