<svg width="28" height="28" fill="none" xmlns="http://www.w3.org/2000/svg"><path fill-rule="evenodd" clip-rule="evenodd" d="M4 12a8 8 0 1116 0 8 8 0 01-16 0zm14 0c0-3.309-2.691-6-6-6s-6 2.691-6 6 2.691 6 6 6 6-2.691 6-6zm-.39 7.084a9.462 9.462 0 001.474-1.473L24 22.526 22.526 24l-4.915-4.916z" fill="#212121"/><mask id="a" maskUnits="userSpaceOnUse" x="4" y="4" width="20" height="20"><path fill-rule="evenodd" clip-rule="evenodd" d="M4 12a8 8 0 1116 0 8 8 0 01-16 0zm14 0c0-3.309-2.691-6-6-6s-6 2.691-6 6 2.691 6 6 6 6-2.691 6-6zm-.39 7.084a9.462 9.462 0 001.474-1.473L24 22.526 22.526 24l-4.915-4.916z" fill="#fff"/></mask><g mask="url(#a)"><path fill="#212121" d="M0 0h28v28H0z"/></g></svg>