<svg width="20" height="20" fill="none" xmlns="http://www.w3.org/2000/svg"><path fill-rule="evenodd" clip-rule="evenodd" d="M10 19a9 9 0 100-18 9 9 0 000 18z" fill="#fff" stroke="#757575"/><mask id="a" maskUnits="userSpaceOnUse" x="0" y="0" width="20" height="20"><path fill-rule="evenodd" clip-rule="evenodd" d="M10 19a9 9 0 100-18 9 9 0 000 18z" fill="#fff" stroke="#fff"/></mask><g mask="url(#a)" fill-rule="evenodd" clip-rule="evenodd"><path d="M-2.676.463h12.94v10.068h-12.94V.463zm1.647.775h-.452l-.13-.387-.13.387h-.45l.354.259-.129.45.355-.29.355.258-.129-.418.356-.26zM9.65 9.53h-.42l-.16-.387-.13.387h-.419l.355.258-.162.452.356-.29.355.29-.13-.452.356-.258zm-2.129 0H7.07l-.129-.387-.13.387H6.36l.355.258-.13.452.356-.29.355.29-.13-.452.356-.258zm-2.163 0H4.94l-.129-.387-.13.387h-.45l.354.258-.161.452.387-.29.355.29-.13-.452.323-.258zm-2.13 0h-.42l-.128-.387-.161.387H2.1l.355.258-.162.452.388-.29.355.29-.161-.452.354-.258zm-2.13 0H.68l-.16-.387-.13.387h-.42l.356.258-.162.452.355-.29.355.29-.129-.452.355-.258zm-2.128 0h-.452l-.13-.387-.13.387h-.45l.354.258-.129.452.355-.29.355.29-.129-.452.356-.258zm9.551-1.032h-.42l-.129-.388-.129.388h-.452l.355.258-.16.452.386-.29.355.257-.161-.419.355-.258zm-2.13 0h-.419L5.81 8.11l-.128.388h-.42l.355.258-.161.452.354-.29.355.257-.129-.419.355-.258zm-2.13 0H3.81l-.128-.388-.13.388h-.451l.355.258-.13.452.356-.29.354.257-.129-.419.355-.258zm-2.13 0H1.68l-.13-.388-.128.388H.971l.355.258-.13.452.356-.29.355.257-.13-.419.356-.258zm-2.161 0h-.42l-.129-.388-.13.388h-.451l.355.258-.162.452.388-.29.355.257-.162-.419.356-.258zm8.551-2.066h-.42l-.129-.386-.129.386h-.452l.355.259-.16.419.386-.258.355.258-.161-.42.355-.258zm-2.13 0h-.419l-.162-.386-.128.386h-.42l.355.259-.161.419.354-.258.355.258-.129-.42.355-.258zm-2.13 0H3.81l-.128-.386-.13.386h-.451l.355.259-.13.419.356-.258.354.258-.129-.42.355-.258zm-2.13 0H1.68l-.13-.386-.128.386H.971l.355.259-.13.419.356-.258.355.258-.13-.42.356-.258zm-2.161 0h-.42l-.129-.386-.13.386h-.451l.355.259-.162.419.388-.258.355.258-.162-.42.356-.258zm8.551-2.065h-.42l-.129-.42-.129.42h-.452l.355.258-.16.42.386-.258.355.258-.161-.42.355-.258zm-2.13 0h-.419l-.162-.42-.128.42h-.42l.355.258-.161.42.354-.258.355.258-.129-.42.355-.258zm-2.13 0H3.81l-.128-.42-.13.42h-.451l.355.258-.13.42.356-.258.354.258-.129-.42.355-.258zm-2.13 0H1.68l-.13-.42-.128.42H.971l.355.258-.13.42.356-.258.355.258-.13-.42.356-.258zm-2.161 0h-.42l-.129-.42-.13.42h-.451l.355.258-.162.42.388-.258.355.258-.162-.42.356-.258zM8.522 2.27h-.42l-.129-.387-.129.387h-.452l.355.259-.16.452.386-.29.355.29-.161-.452.355-.259zm-2.13 0h-.419l-.162-.387-.128.387h-.42l.355.259-.161.452.354-.29.355.29-.129-.452.355-.259zm-2.13 0H3.81l-.128-.387-.13.387h-.451l.355.259-.13.452.356-.29.354.29-.129-.452.355-.259zm-2.13 0h-.451l-.13-.387-.128.387H.971l.355.259-.13.452.356-.29.355.29-.13-.452.356-.259zm-2.161 0h-.42l-.129-.387-.13.387h-.451l.355.259-.162.452.388-.29.355.29-.162-.452.356-.259zm9.68 5.196h-.42l-.16-.387-.13.387h-.419l.355.259-.162.418.356-.257.355.257-.13-.418.356-.259zm-2.129 0H7.07l-.13-.386-.13.387h-.45l.355.259-.13.418.356-.257.355.257-.13-.418.356-.259zm-2.163 0H4.94l-.129-.387-.13.387h-.45l.354.259-.161.418.387-.257.355.257-.13-.418.323-.259zm-2.13 0h-.42l-.128-.387-.161.387H2.1l.355.259-.162.418.388-.257.355.257-.161-.418.354-.259zm-2.13 0H.68L.52 7.08l-.13.387h-.42l.356.259-.162.418.355-.257.355.257-.129-.418.355-.259zm-2.128 0h-.452l-.13-.387-.13.387h-.45l.354.259-.129.418.355-.257.355.257-.129-.418.356-.259zM9.65 5.401h-.42l-.16-.42-.13.42h-.419l.355.258-.162.42.356-.258.355.257-.13-.419.356-.258zm-2.129 0H7.07l-.129-.42-.13.42H6.36l.355.258-.13.42.356-.258.355.257-.13-.419.356-.258zm-2.163 0H4.94l-.129-.42-.13.42h-.45l.354.258-.161.42.387-.258.355.257-.13-.419.323-.258zm-2.13 0h-.42l-.128-.42-.161.42H2.1l.355.258-.162.42.388-.258.355.257-.161-.419.354-.258zm-2.13 0H.68l-.16-.42-.13.42h-.42l.356.258-.162.42.355-.258.355.257-.129-.419.355-.258zm-2.128 0h-.452l-.13-.42-.13.42h-.45l.354.258-.129.42.355-.258.355.257-.129-.419.356-.258zM9.65 3.336h-.42l-.16-.42-.13.42h-.419l.355.258-.162.42.356-.259.355.258-.13-.42.356-.257zm-2.129 0H7.07l-.129-.42-.13.42H6.36l.355.258-.13.42.356-.259.355.258-.13-.42.356-.257zm-2.163 0H4.94l-.129-.42-.13.42h-.45l.354.258-.161.42.387-.259.355.258-.13-.42.323-.257zm-2.13 0h-.42l-.128-.42-.161.42H2.1l.355.258-.162.42.388-.259.355.258-.161-.42.354-.257zm-2.13 0H.68l-.16-.42-.13.42h-.42l.356.258-.162.42.355-.259.355.258-.129-.42.355-.257zm-2.128 0h-.452l-.13-.42-.13.42h-.45l.354.258-.129.42.355-.259.355.258-.129-.42.356-.257zM9.65 1.238h-.42L9.072.85l-.13.387h-.419l.355.259-.162.45.356-.29.355.258-.13-.418.356-.26zm-2.129 0H7.07L6.94.85l-.13.387h-.45l.355.259-.13.45.356-.29.355.258-.13-.418.356-.26zm-2.163 0H4.94L4.811.85l-.13.387h-.45l.354.259-.161.45.387-.29.355.258-.13-.418.323-.26zm-2.13 0h-.42L2.682.85l-.161.387H2.1l.355.259-.162.45.388-.29.355.258-.161-.418.354-.26zm-2.13 0H.68L.52.85l-.13.387h-.42l.356.259-.162.45.355-.29.355.258-.129-.418.355-.26z" fill="#002868"/><path d="M10.265.463h15.548v1.452H10.265V.463zm0 2.873h15.548v1.452H10.265V3.336zm0 2.872h15.548V7.66H10.265V6.208zm0 2.871h15.548v1.452H10.265V9.08zm-12.94 2.872h28.488v1.452H-2.676v-1.452zm0 2.873h28.488v1.452H-2.676v-1.452zm0 2.872h28.488v1.451H-2.676v-1.451z" fill="#BF0A30"/></g></svg>