<svg width="28" height="28" viewBox="0 0 28 28" fill="none" xmlns="http://www.w3.org/2000/svg">
<path fill-rule="evenodd" clip-rule="evenodd" d="M4 12C4 7.5815 7.582 4 12 4C16.418 4 20 7.5815 20 12C20 16.4185 16.418 20 12 20C7.582 20 4 16.4185 4 12ZM18 12C18 8.6915 15.3085 6 12 6C8.6915 6 6 8.6915 6 12C6 15.3085 8.6915 18 12 18C15.3085 18 18 15.3085 18 12ZM17.6109 19.0844C18.1549 18.6489 18.6489 18.1549 19.0844 17.6109L23.9999 22.5264L22.5264 23.9999L17.6109 19.0844Z" fill="#212121"/>
<mask id="mask0" mask-type="alpha" maskUnits="userSpaceOnUse" x="4" y="4" width="20" height="20">
<path fill-rule="evenodd" clip-rule="evenodd" d="M4 12C4 7.5815 7.582 4 12 4C16.418 4 20 7.5815 20 12C20 16.4185 16.418 20 12 20C7.582 20 4 16.4185 4 12ZM18 12C18 8.6915 15.3085 6 12 6C8.6915 6 6 8.6915 6 12C6 15.3085 8.6915 18 12 18C15.3085 18 18 15.3085 18 12ZM17.6109 19.0844C18.1549 18.6489 18.6489 18.1549 19.0844 17.6109L23.9999 22.5264L22.5264 23.9999L17.6109 19.0844Z" fill="white"/>
</mask>
<g mask="url(#mask0)">
<rect width="28" height="28" fill="#212121"/>
</g>
</svg>
