<svg width="20" height="20" viewBox="0 0 20 20" fill="none" xmlns="http://www.w3.org/2000/svg">
<path fill-rule="evenodd" clip-rule="evenodd" d="M10 19C14.9706 19 19 14.9706 19 10C19 5.02944 14.9706 1 10 1C5.02944 1 1 5.02944 1 10C1 14.9706 5.02944 19 10 19Z" fill="white" stroke="#757575"/>
<mask id="mask0" mask-type="alpha" maskUnits="userSpaceOnUse" x="0" y="0" width="20" height="20">
<path fill-rule="evenodd" clip-rule="evenodd" d="M10 19C14.9706 19 19 14.9706 19 10C19 5.02944 14.9706 1 10 1C5.02944 1 1 5.02944 1 10C1 14.9706 5.02944 19 10 19Z" fill="white" stroke="white"/>
</mask>
<g mask="url(#mask0)">
<path fill-rule="evenodd" clip-rule="evenodd" d="M-2.67578 0.463379H10.2646V10.5314H-2.67578V0.463379ZM-1.02934 1.23778H-1.48134L-1.61094 0.850579L-1.74014 1.23778H-2.19174L-1.83654 1.49658L-1.96574 1.94778L-1.61094 1.65738L-1.25574 1.91538L-1.38494 1.49658L-1.02934 1.23778ZM9.65185 9.53098H9.23185L9.07065 9.14378L8.94106 9.53098H8.52225L8.87706 9.78938L8.71546 10.241L9.07065 9.95058L9.42585 10.241L9.29626 9.78938L9.65185 9.53098ZM7.52224 9.53098H7.06984L6.94104 9.14378L6.81144 9.53098H6.35984L6.71504 9.78938L6.58584 10.241L6.94104 9.95058L7.29584 10.241L7.16664 9.78938L7.52224 9.53098ZM5.35941 9.53098H4.94021L4.81101 9.14378L4.68181 9.53098H4.23021L4.58541 9.78938L4.42381 10.241L4.81101 9.95058L5.16581 10.241L5.03661 9.78938L5.35941 9.53098ZM3.22939 9.53098H2.80979L2.68099 9.14378L2.51979 9.53098H2.10019L2.45539 9.78938L2.29339 10.241L2.68099 9.95058L3.03619 10.241L2.87459 9.78938L3.22939 9.53098ZM1.09987 9.53098H0.680272L0.519072 9.14378L0.390272 9.53098H-0.0293283L0.325872 9.78938L0.163872 10.241L0.519072 9.95058L0.873872 10.241L0.745072 9.78938L1.09987 9.53098ZM-1.02934 9.53098H-1.48134L-1.61094 9.14378L-1.74014 9.53098H-2.19174L-1.83654 9.78938L-1.96574 10.241L-1.61094 9.95058L-1.25574 10.241L-1.38494 9.78938L-1.02934 9.53098ZM8.52221 8.49858H8.10261L7.97341 8.11138L7.84421 8.49858H7.39221L7.74741 8.75738L7.58621 9.20858L7.97341 8.91818L8.32821 9.17578L8.16661 8.75738L8.52221 8.49858ZM6.39219 8.49858H5.97299L5.81139 8.11138L5.68259 8.49858H5.26219L5.61779 8.75738L5.45659 9.20858L5.81139 8.91818L6.16619 9.17578L6.03699 8.75738L6.39219 8.49858ZM4.26227 8.49858H3.81027L3.68187 8.11138L3.55267 8.49858H3.10067L3.45587 8.75738L3.32627 9.20858L3.68187 8.91818L4.03627 9.17578L3.90747 8.75738L4.26227 8.49858ZM2.13264 8.49858H1.68104L1.55184 8.11138L1.42304 8.49858H0.971039L1.32584 8.75738L1.19624 9.20858L1.55184 8.91818L1.90664 9.17578L1.77704 8.75738L2.13264 8.49858ZM-0.029381 8.49858H-0.448981L-0.577781 8.11138L-0.707381 8.49858H-1.15898L-0.804181 8.75738L-0.965781 9.20858L-0.577781 8.91818L-0.223381 9.17578L-0.384581 8.75738L-0.029381 8.49858ZM8.52221 6.43338H8.10261L7.97341 6.04659L7.84421 6.43338H7.39221L7.74741 6.69178L7.58621 7.11058L7.97341 6.85298L8.32821 7.11058L8.16661 6.69178L8.52221 6.43338ZM6.39219 6.43338H5.97299L5.81139 6.04659L5.68259 6.43338H5.26219L5.61779 6.69178L5.45659 7.11058L5.81139 6.85298L6.16619 7.11058L6.03699 6.69178L6.39219 6.43338ZM4.26227 6.43338H3.81027L3.68187 6.04659L3.55267 6.43338H3.10067L3.45587 6.69178L3.32627 7.11058L3.68187 6.85298L4.03627 7.11058L3.90747 6.69178L4.26227 6.43338ZM2.13264 6.43338H1.68104L1.55184 6.04659L1.42304 6.43338H0.971039L1.32584 6.69178L1.19624 7.11058L1.55184 6.85298L1.90664 7.11058L1.77704 6.69178L2.13264 6.43338ZM-0.029381 6.43338H-0.448981L-0.577781 6.04659L-0.707381 6.43338H-1.15898L-0.804181 6.69178L-0.965781 7.11058L-0.577781 6.85298L-0.223381 7.11058L-0.384581 6.69178L-0.029381 6.43338ZM8.52221 4.36818H8.10261L7.97341 3.94858L7.84421 4.36818H7.39221L7.74741 4.62578L7.58621 5.04578L7.97341 4.78778L8.32821 5.04578L8.16661 4.62578L8.52221 4.36818ZM6.39219 4.36818H5.97299L5.81139 3.94858L5.68259 4.36818H5.26219L5.61779 4.62578L5.45659 5.04578L5.81139 4.78778L6.16619 5.04578L6.03699 4.62578L6.39219 4.36818ZM4.26227 4.36818H3.81027L3.68187 3.94858L3.55267 4.36818H3.10067L3.45587 4.62578L3.32627 5.04578L3.68187 4.78778L4.03627 5.04578L3.90747 4.62578L4.26227 4.36818ZM2.13264 4.36818H1.68104L1.55184 3.94858L1.42304 4.36818H0.971039L1.32584 4.62578L1.19624 5.04578L1.55184 4.78778L1.90664 5.04578L1.77704 4.62578L2.13264 4.36818ZM-0.029381 4.36818H-0.448981L-0.577781 3.94858L-0.707381 4.36818H-1.15898L-0.804181 4.62578L-0.965781 5.04578L-0.577781 4.78778L-0.223381 5.04578L-0.384581 4.62578L-0.029381 4.36818ZM8.52221 2.27018H8.10261L7.97341 1.88338L7.84421 2.27018H7.39221L7.74741 2.52898L7.58621 2.98058L7.97341 2.69018L8.32821 2.98058L8.16661 2.52898L8.52221 2.27018ZM6.39219 2.27018H5.97299L5.81139 1.88338L5.68259 2.27018H5.26219L5.61779 2.52898L5.45659 2.98058L5.81139 2.69018L6.16619 2.98058L6.03699 2.52898L6.39219 2.27018ZM4.26227 2.27018H3.81027L3.68187 1.88338L3.55267 2.27018H3.10067L3.45587 2.52898L3.32627 2.98058L3.68187 2.69018L4.03627 2.98058L3.90747 2.52898L4.26227 2.27018ZM2.13264 2.27018H1.68104L1.55184 1.88338L1.42304 2.27018H0.971039L1.32584 2.52898L1.19624 2.98058L1.55184 2.69018L1.90664 2.98058L1.77704 2.52898L2.13264 2.27018ZM-0.029381 2.27018H-0.448981L-0.577781 1.88338L-0.707381 2.27018H-1.15898L-0.804181 2.52898L-0.965781 2.98058L-0.577781 2.69018L-0.223381 2.98058L-0.384581 2.52898L-0.029381 2.27018ZM9.65185 7.46618H9.23185L9.07065 7.07898L8.94106 7.46618H8.52225L8.87706 7.72458L8.71546 8.14338L9.07065 7.88578L9.42585 8.14338L9.29626 7.72458L9.65185 7.46618ZM7.52224 7.46618H7.06984L6.94104 7.07898L6.81144 7.46618H6.35984L6.71504 7.72458L6.58584 8.14338L6.94104 7.88578L7.29584 8.14338L7.16664 7.72458L7.52224 7.46618ZM5.35941 7.46618H4.94021L4.81101 7.07898L4.68181 7.46618H4.23021L4.58541 7.72458L4.42381 8.14338L4.81101 7.88578L5.16581 8.14338L5.03661 7.72458L5.35941 7.46618ZM3.22939 7.46618H2.80979L2.68099 7.07898L2.51979 7.46618H2.10019L2.45539 7.72458L2.29339 8.14338L2.68099 7.88578L3.03619 8.14338L2.87459 7.72458L3.22939 7.46618ZM1.09987 7.46618H0.680272L0.519072 7.07898L0.390272 7.46618H-0.0293283L0.325872 7.72458L0.163872 8.14338L0.519072 7.88578L0.873872 8.14338L0.745072 7.72458L1.09987 7.46618ZM-1.02934 7.46618H-1.48134L-1.61094 7.07898L-1.74014 7.46618H-2.19174L-1.83654 7.72458L-1.96574 8.14338L-1.61094 7.88578L-1.25574 8.14338L-1.38494 7.72458L-1.02934 7.46618ZM9.65185 5.40058H9.23185L9.07065 4.98098L8.94106 5.40058H8.52225L8.87706 5.65938L8.71546 6.07818L9.07065 5.82058L9.42585 6.07818L9.29626 5.65938L9.65185 5.40058ZM7.52224 5.40058H7.06984L6.94104 4.98098L6.81144 5.40058H6.35984L6.71504 5.65938L6.58584 6.07818L6.94104 5.82058L7.29584 6.07818L7.16664 5.65938L7.52224 5.40058ZM5.35941 5.40058H4.94021L4.81101 4.98098L4.68181 5.40058H4.23021L4.58541 5.65938L4.42381 6.07818L4.81101 5.82058L5.16581 6.07818L5.03661 5.65938L5.35941 5.40058ZM3.22939 5.40058H2.80979L2.68099 4.98098L2.51979 5.40058H2.10019L2.45539 5.65938L2.29339 6.07818L2.68099 5.82058L3.03619 6.07818L2.87459 5.65938L3.22939 5.40058ZM1.09987 5.40058H0.680272L0.519072 4.98098L0.390272 5.40058H-0.0293283L0.325872 5.65938L0.163872 6.07818L0.519072 5.82058L0.873872 6.07818L0.745072 5.65938L1.09987 5.40058ZM-1.02934 5.40058H-1.48134L-1.61094 4.98098L-1.74014 5.40058H-2.19174L-1.83654 5.65938L-1.96574 6.07818L-1.61094 5.82058L-1.25574 6.07818L-1.38494 5.65938L-1.02934 5.40058ZM9.65185 3.33578H9.23185L9.07065 2.91618L8.94106 3.33578H8.52225L8.87706 3.59378L8.71546 4.01338L9.07065 3.75498L9.42585 4.01338L9.29626 3.59378L9.65185 3.33578ZM7.52224 3.33578H7.06984L6.94104 2.91618L6.81144 3.33578H6.35984L6.71504 3.59378L6.58584 4.01338L6.94104 3.75498L7.29584 4.01338L7.16664 3.59378L7.52224 3.33578ZM5.35941 3.33578H4.94021L4.81101 2.91618L4.68181 3.33578H4.23021L4.58541 3.59378L4.42381 4.01338L4.81101 3.75498L5.16581 4.01338L5.03661 3.59378L5.35941 3.33578ZM3.22939 3.33578H2.80979L2.68099 2.91618L2.51979 3.33578H2.10019L2.45539 3.59378L2.29339 4.01338L2.68099 3.75498L3.03619 4.01338L2.87459 3.59378L3.22939 3.33578ZM1.09987 3.33578H0.680272L0.519072 2.91618L0.390272 3.33578H-0.0293283L0.325872 3.59378L0.163872 4.01338L0.519072 3.75498L0.873872 4.01338L0.745072 3.59378L1.09987 3.33578ZM-1.02934 3.33578H-1.48134L-1.61094 2.91618L-1.74014 3.33578H-2.19174L-1.83654 3.59378L-1.96574 4.01338L-1.61094 3.75498L-1.25574 4.01338L-1.38494 3.59378L-1.02934 3.33578ZM9.65185 1.23778H9.23185L9.07065 0.850579L8.94106 1.23778H8.52225L8.87706 1.49658L8.71546 1.94778L9.07065 1.65738L9.42585 1.91538L9.29626 1.49658L9.65185 1.23778ZM7.52224 1.23778H7.06984L6.94104 0.850579L6.81144 1.23778H6.35984L6.71504 1.49658L6.58584 1.94778L6.94104 1.65738L7.29584 1.91538L7.16664 1.49658L7.52224 1.23778ZM5.35941 1.23778H4.94021L4.81101 0.850579L4.68181 1.23778H4.23021L4.58541 1.49658L4.42381 1.94778L4.81101 1.65738L5.16581 1.91538L5.03661 1.49658L5.35941 1.23778ZM3.22939 1.23778H2.80979L2.68099 0.850579L2.51979 1.23778H2.10019L2.45539 1.49658L2.29339 1.94778L2.68099 1.65738L3.03619 1.91538L2.87459 1.49658L3.22939 1.23778ZM1.09987 1.23778H0.680272L0.519072 0.850579L0.390272 1.23778H-0.0293283L0.325872 1.49658L0.163872 1.94778L0.519072 1.65738L0.873872 1.91538L0.745072 1.49658L1.09987 1.23778Z" fill="#002868"/>
<path fill-rule="evenodd" clip-rule="evenodd" d="M10.2646 0.463379H25.8126V1.91498H10.2646V0.463379ZM10.2646 3.33578H25.8126V4.78778H10.2646V3.33578ZM10.2646 6.20778H25.8126V7.65978H10.2646V6.20778ZM10.2646 9.07938H25.8126V10.5314H10.2646V9.07938ZM-2.67578 11.951H25.8126V13.4034H-2.67578V11.951ZM-2.67578 14.8238H25.8126V16.2758H-2.67578V14.8238ZM-2.67578 17.6958H25.8126V19.1474H-2.67578V17.6958Z" fill="#BF0A30"/>
</g>
</svg>
