<svg width="20" height="16" fill="none" xmlns="http://www.w3.org/2000/svg"><path fill-rule="evenodd" clip-rule="evenodd" d="M6.29 16c7.547 0 11.675-6.156 11.675-11.495 0-.175 0-.35-.012-.522A8.265 8.265 0 0020 1.892a8.273 8.273 0 01-2.356.636A4.07 4.07 0 0019.448.293a8.303 8.303 0 01-2.606.98 4.153 4.153 0 00-5.806-.175 4.006 4.006 0 00-1.187 3.86A11.717 11.717 0 011.392.738 4.005 4.005 0 002.663 6.13 4.122 4.122 0 01.8 5.625v.051C.801 7.6 2.178 9.255 4.092 9.636a4.144 4.144 0 01-1.852.069c.537 1.646 2.078 2.773 3.833 2.806A8.316 8.316 0 010 14.186a11.753 11.753 0 006.29 1.811" fill="#757575"/></svg>